PathFileType	4	(X/Y/Z)	s06c0103.trc
DataRate	CameraRate	NumFrames	NumMarkers	Units	OrigDataRate	OrigDataStartFrame	OrigNumFrames
200	200	6	48	mm	200	500	2000
Frame#	Time	racr			lacr			c7			jug			rlel			rdr			llel			ldr			s2			lic			ric			lasi			rasi			rpsi			lpsi			rgt			lgt			rth1			rth2			rth3			rth4			rlfc			rmfc			rsh1			rsh2			rsh3			rsh4			rlmal			rcal			rtoe			rmt5			lth1			lth2			lth4			lth3			llfc			lmfc			llmal			lcal			lmt5			lsh1			lsh2			lsh3			lsh4			ltoe			SBIKE			LBIKE			RBIKE			
		X1	Y1	Z1	X2	Y2	Z2	X3	Y3	Z3	X4	Y4	Z4	X5	Y5	Z5	X6	Y6	Z6	X7	Y7	Z7	X8	Y8	Z8	X9	Y9	Z9	X10	Y10	Z10	X11	Y11	Z11	X12	Y12	Z12	X13	Y13	Z13	X14	Y14	Z14	X15	Y15	Z15	X16	Y16	Z16	X17	Y17	Z17	X18	Y18	Z18	X19	Y19	Z19	X20	Y20	Z20	X21	Y21	Z21	X22	Y22	Z22	X23	Y23	Z23	X24	Y24	Z24	X25	Y25	Z25	X26	Y26	Z26	X27	Y27	Z27	X28	Y28	Z28	X29	Y29	Z29	X30	Y30	Z30	X31	Y31	Z31	X32	Y32	Z32	X33	Y33	Z33	X34	Y34	Z34	X35	Y35	Z35	X36	Y36	Z36	X37	Y37	Z37	X38	Y38	Z38	X39	Y39	Z39	X40	Y40	Z40	X41	Y41	Z41	X42	Y42	Z42	X43	Y43	Z43	X44	Y44	Z44	X45	Y45	Z45	X46	Y46	Z46	X47	Y47	Z47	X48	Y48	Z48	
500	2.5000	516.406010	1313.202686	-68.185630	528.426830	1315.346046	-373.538193	500.285093	1399.840121	-222.048966	530.673363	1241.344152	-217.305047	529.645173	1061.957832	42.441865	721.393351	923.830413	-42.029981	511.682220	1054.429695	-470.228330	716.526944	926.088511	-406.923248	-10.351715	1149.592665	-220.922973	151.051980	1123.443491	-383.171284	143.498024	1114.405119	-59.006519	167.235006	1076.829107	-344.638378	171.339192	1073.688365	-98.405035	20.469023	1185.495604	-186.224276	17.860037	1188.060964	-245.629189	103.859938	1026.892401	-29.935700	121.327085	1081.613157	-411.009077	170.305730	910.638340	-7.974635	227.318810	839.604761	-6.222446	239.576154	753.910807	-15.639950	259.120670	855.701584	-18.364496	267.431959	649.394448	-27.635061	268.775231	625.774846	-137.897237	249.672794	528.129667	-5.549196	263.563687	443.274433	-24.113521	233.798345	361.903753	-33.044947	288.282661	445.946029	-56.714428	222.554575	282.042660	-43.029329	159.423106	280.233330	-91.872615	402.422938	147.008536	-95.476410	306.361973	169.016857	-24.246881	193.219483	1004.149705	-432.676029	278.459661	985.531171	-430.508587	294.895503	1015.082095	-414.324924	344.875342	925.528724	-435.646940	407.620791	833.742650	-410.943676	411.713944	818.140161	-294.937137	118.038182	604.045643	-374.264017	44.071340	623.941535	-323.292039	170.238887	475.192618	-399.375075	333.520382	754.572437	-423.358408	280.509147	691.472264	-396.427469	198.564474	656.798106	-389.627382	299.294126	677.002047	-365.213679	243.839012	426.570174	-342.856941	-202.963866	866.386258	-210.204200	-50.014919	81.057552	-411.021994	-49.903579	80.433042	-13.508224	
501	2.5050	516.500950	1313.987330	-68.120314	528.148342	1315.559168	-373.444500	499.974103	1400.227684	-222.199650	530.504399	1241.697083	-217.220622	530.877051	1062.774994	42.893014	721.498674	923.300138	-41.289382	511.527950	1054.584148	-469.667313	716.549574	926.229271	-406.466551	-10.607487	1150.013563	-220.107608	150.627949	1124.256817	-382.426883	143.814710	1114.235540	-58.152778	166.314660	1077.273152	-344.249476	171.232515	1073.417158	-97.735244	20.335530	1185.745590	-185.179290	17.382393	1188.701325	-244.530407	103.109134	1025.954696	-29.645938	121.014654	1083.969184	-409.560488	168.765890	909.054138	-7.869747	224.984040	837.411264	-6.326051	236.276825	751.563160	-15.951537	257.030797	853.056678	-18.419801	263.135501	646.996709	-28.019381	264.355784	623.434928	-138.442348	245.337851	525.935736	-5.796340	259.047537	441.010001	-24.262701	229.166337	359.556289	-33.091485	283.736461	443.588396	-57.002974	217.569959	279.917972	-43.011569	154.683083	278.846561	-91.959766	395.606717	141.980491	-95.379490	299.881554	165.450896	-24.219450	193.444407	1007.576422	-431.729200	278.911516	989.747723	-429.360164	294.983821	1019.295993	-412.602164	345.918621	930.393069	-434.556649	410.181126	839.239715	-409.863710	413.261734	822.432225	-293.576765	121.719022	606.984864	-374.160817	47.157531	625.289339	-323.445502	176.635460	479.473370	-399.481426	336.044374	759.653925	-422.120878	283.461677	695.945050	-395.767391	201.778425	660.640220	-389.306681	302.352955	681.393291	-364.669021	251.266846	432.510302	-342.982253	-202.979966	866.399996	-210.244440	-49.997398	81.064208	-411.019088	-49.965091	80.560929	-13.461964	
502	2.5100	516.553737	1314.210202	-68.640037	527.763603	1315.680558	-373.384351	499.453998	1400.574442	-222.313307	530.189877	1242.038113	-217.170101	532.062927	1063.660299	43.306464	721.929580	922.963257	-40.932371	511.414039	1054.630978	-469.101484	716.531805	926.475226	-406.060574	-11.080782	1150.598955	-219.162437	149.964464	1125.136643	-381.685657	144.779490	1114.398430	-56.611505	165.190599	1077.807525	-343.860931	170.958349	1072.250854	-97.074196	19.964042	1186.005266	-184.020306	16.576935	1189.367011	-243.370963	102.346997	1025.041799	-29.434609	120.557286	1086.403576	-408.058091	167.216600	907.509300	-7.751698	222.162494	835.504072	-6.410528	233.368306	749.318436	-16.621315	254.936897	850.714536	-18.709744	259.061036	644.689732	-28.586977	259.946157	621.049123	-139.074630	241.089843	523.744257	-6.191762	254.498325	438.878582	-24.620675	224.370616	357.466478	-33.288389	279.081062	441.353147	-57.460496	212.259543	277.872381	-43.228818	149.423311	277.658112	-92.180937	388.572095	137.449924	-95.191320	293.104107	162.288615	-24.201125	193.546827	1010.948630	-430.843899	279.077823	993.847640	-428.136599	294.904135	1023.378148	-410.834996	346.849852	935.229909	-433.858122	412.307498	844.195221	-408.286957	414.646410	826.811370	-292.143323	125.465958	609.437464	-374.137719	50.335030	626.076436	-323.589587	182.965998	483.339897	-399.422493	338.577082	764.337322	-420.763186	286.386239	700.057103	-394.905163	205.005701	664.001879	-388.991167	305.348881	685.251840	-363.979488	258.478200	437.868199	-343.180760	-203.002899	866.393101	-210.284963	-50.013375	81.073745	-411.030099	-49.968695	80.587070	-13.461637	
503	2.5150	516.527658	1314.720319	-68.818393	527.304155	1315.705290	-373.403269	498.841315	1400.859096	-222.477904	529.656977	1242.249762	-217.118064	533.351653	1064.633742	43.570753	722.387036	922.646143	-40.494673	511.355173	1054.555008	-468.589616	716.465361	926.791835	-405.711844	-11.685549	1151.154653	-218.098575	149.315848	1126.102583	-381.019952	144.761348	1114.202821	-55.842671	164.288377	1078.560023	-343.474090	170.633555	1072.002590	-96.282798	19.559023	1186.316919	-182.823384	15.742243	1190.058578	-242.102650	101.508863	1024.081684	-29.152753	119.934859	1088.652981	-406.466087	165.727512	906.003017	-7.717348	220.099755	833.581913	-6.550926	230.313834	747.112504	-17.151277	252.930643	848.353976	-19.174599	255.028700	642.550166	-29.400010	255.659027	618.822885	-139.888009	236.896941	521.781301	-6.790323	249.859550	436.651077	-25.323637	219.344567	355.600961	-33.612064	274.344036	439.016956	-58.161520	206.641869	276.159687	-43.594305	143.754091	276.909301	-92.245709	381.332150	133.375890	-95.102731	286.120219	159.507694	-24.268162	193.427789	1014.189468	-429.750568	279.102396	997.763864	-426.842486	294.644841	1027.215006	-409.019912	347.219382	939.612064	-432.762493	414.140940	848.720775	-406.746540	415.915490	831.234880	-290.629289	129.209696	611.299764	-374.070267	53.541162	626.350392	-323.790116	189.542232	486.850617	-399.204038	341.055723	768.555674	-419.387147	289.365918	703.570783	-394.054810	208.282516	666.827330	-388.718138	308.343208	688.900959	-363.203573	266.326009	443.395713	-343.015770	-203.046706	866.351786	-210.325057	-50.001032	81.042289	-411.028396	-49.935772	80.593958	-13.484719	
504	2.5200	516.215350	1315.746385	-68.811109	526.672940	1315.684419	-373.416564	498.056591	1401.127031	-222.710017	528.962821	1242.494412	-217.129342	534.747117	1065.775167	43.673384	723.998245	922.455306	-40.329262	511.258119	1054.356368	-467.967898	716.327256	927.153740	-405.491329	-12.326288	1151.598295	-216.993299	148.538034	1127.160092	-380.365961	141.408772	1113.192368	-57.563846	163.342391	1079.442767	-343.087577	170.031517	1071.670376	-95.827489	18.953676	1186.671357	-181.565432	14.865860	1190.769878	-240.770992	100.570726	1023.252878	-28.963515	119.250816	1090.936632	-404.853167	164.181289	904.638656	-7.633681	217.684949	830.929700	-8.045082	227.437108	745.088553	-17.772610	250.909936	845.977749	-19.882075	251.417305	640.309014	-30.304166	251.370817	616.696775	-140.881498	232.875476	519.841777	-7.586550	245.171696	434.750424	-26.080017	214.067316	353.772947	-34.150159	269.517405	436.952677	-59.090203	200.694922	274.749437	-43.934318	137.925501	275.915531	-92.605373	373.954582	129.740057	-94.995645	278.982308	157.111065	-24.345365	193.050297	1017.282794	-428.458969	278.924191	1001.344547	-425.579021	294.137900	1030.733123	-407.152204	347.392378	943.602746	-431.482530	415.675663	852.987469	-405.213954	417.109837	835.762331	-288.857149	133.028140	612.536897	-374.164102	56.636253	625.988485	-324.017701	196.214313	490.104580	-399.472990	343.456691	772.431840	-418.054410	292.386504	706.735527	-393.197324	211.640498	669.121115	-388.491239	311.304822	691.942881	-362.552156	273.917072	448.586440	-343.210280	-203.074694	866.314923	-210.352009	-49.996718	81.008533	-411.058535	-49.918678	80.546061	-13.495780	
505	2.5250	515.898626	1316.167722	-69.441911	525.873868	1315.716319	-373.507262	497.179568	1401.475759	-222.889719	528.019779	1242.686656	-217.158435	536.207457	1067.070087	43.564438	724.670787	922.435863	-39.619486	510.989485	1054.080936	-467.211424	716.100683	927.454372	-405.229335	-13.143599	1151.993037	-215.800901	147.524338	1128.186832	-379.767241	143.928024	1113.737664	-54.586337	162.194229	1080.282241	-342.788873	169.383788	1071.356088	-95.102290	18.170029	1186.757954	-180.187179	13.809853	1191.352170	-239.369237	99.731819	1022.358950	-28.706122	118.417319	1093.196518	-403.317382	162.709282	902.983422	-7.989529	215.749682	829.171790	-8.273421	224.889390	742.998585	-18.533944	248.840906	843.647451	-21.068682	248.077642	638.428794	-31.361064	247.155183	614.623977	-141.946562	228.946076	518.122131	-8.481425	240.529435	433.041530	-26.960246	208.830755	352.099337	-34.781704	264.625521	434.879406	-60.106045	194.696148	273.223831	-44.542790	131.840849	275.070643	-93.068484	366.412121	126.493180	-95.002137	271.673756	154.992497	-24.483801	192.473053	1020.114679	-427.061611	278.521835	1004.782150	-424.215164	293.461536	1034.010454	-405.332289	347.262476	947.392234	-430.171043	416.902923	857.061895	-403.539402	418.245041	840.117774	-286.936829	136.723454	613.783058	-374.788719	59.649181	624.995394	-324.220150	202.957871	493.028806	-399.765080	345.880472	775.838850	-416.746580	295.351869	709.510171	-392.356227	215.018131	670.934426	-388.251498	314.320312	694.867660	-361.562797	281.608654	453.575472	-343.337350	-203.118421	866.277813	-210.413259	-49.999010	80.962791	-411.067533	-49.951606	80.514313	-13.489138	
